# AST/ASF file generated using VICON BodyLanguage
# -----------------------------------------------
:version 1.10
:name VICON
:units
  mass 1.0
  length 0.45
  angle deg
:documentation
   .ast/.asf automatically generated from VICON data using
   VICON BodyBuilder and BodyLanguage model FoxedUp or BRILLIANT.MOD
:root
   order TX TY TZ RX RY RZ
   axis XYZ
   position 0 0 0  
   orientation 0 0 0 
:bonedata
  begin
     id 1 
     name lhipjoint
     direction 0.521452 -0.77106 0.36545 
     length 2.0933 
     axis 0 0 0  XYZ
  end
  begin
     id 2 
     name lfemur
     direction 0.34202 -0.939693 0  
     length 6.83441  
     axis 0 0 20  XYZ
    dof rx ry rz
    limits (-160.0 20.0)
           (-70.0 70.0)
           (-60.0 70.0)
  end
  begin
     id 3 
     name ltibia
     direction 0.34202 -0.939693 0   
     length 7.28749   
     axis 0 0 20   XYZ
    dof rx
    limits (-10.0 170.0)
  end
  begin
     id 4 
     name lfoot
     direction 0.100608 -0.276418 0.955757   
     length 1.52195   
     axis -90 7.62852e-016 20   XYZ
    dof rx rz
    limits (-45.0 90.0)
           (-70.0 20.0)
  end
  begin
     id 5 
     name ltoes
     direction 1.53558e-011 -4.21907e-011 1   
     length 0.770459   
     axis -90 7.62852e-016 20   XYZ
    dof rx
    limits (-90.0 20.0)
  end
  begin
     id 6 
     name rhipjoint
     direction -0.488071 -0.788702 0.373812   
     length 2.04648  
     axis 0 0 0  XYZ 
  end
  begin
     id 7 
     name rfemur
     direction -0.34202 -0.939693 0   
     length 6.92583   
     axis 0 0 -20   XYZ
    dof rx ry rz
    limits (-160.0 20.0)
           (-70.0 70.0)
           (-70.0 60.0)
  end
  begin
     id 8 
     name rtibia
     direction -0.34202 -0.939693 0   
     length 7.41043   
     axis 0 0 -20   XYZ
    dof rx
    limits (-10.0 170.0)
 end
 begin
     id 9 
     name rfoot
     direction -0.0784433 -0.215521 0.973343   
     length 1.67708  
     axis -90 -7.62852e-016 -20   XYZ
    dof rx rz
    limits (-45.0 90.0)
           (-20.0 70.0)
  end
  begin
     id 10 
     name rtoes
     direction -1.53551e-011 -4.21842e-011 1   
     length 0.849787   
     axis -90 -7.62852e-016 -20   XYZ
    dof rx
    limits (-90.0 20.0)
  end
  begin
     id 11 
     name lowerback
     direction -0.0122332 0.997575 -0.0685192   
     length 1.98724   
     axis 0 0 0   XYZ
    dof rx ry rz
    limits (-20.0 45.0)
           (-30.0 30.0)
           (-30.0 30.0)
  end
  begin
     id 12 
     name upperback
     direction 0.0182347 0.999724 -0.0148421   
     length 1.99029   
     axis 0 0 0   XYZ
    dof rx ry rz
    limits (-20.0 45.0)
           (-30.0 30.0)
           (-30.0 30.0)
  end
  begin
     id 13 
     name thorax
     direction 0.0242908 0.99956 0.0170184   
     length 1.99573   
     axis 0 0 0   XYZ
    dof rx ry rz
    limits (-20.0 45.0)
           (-30.0 30.0)
           (-30.0 30.0)
  end
  begin
     id 14 
     name lowerneck
     direction 0.0654488 0.985533 0.156338   
     length 1.4285   
     axis 0 0 0   XYZ
    dof rx ry rz
    limits (-20.0 45.0)
           (-30.0 30.0)
           (-30.0 30.0)
  end
  begin
     id 15 
     name upperneck
     direction -0.02953 0.998556 -0.0448842   
     length 1.44709   
     axis 0 0 0   XYZ
    dof rx ry rz
    limits (-20.0 45.0)
           (-30.0 30.0)
           (-30.0 30.0)
  end
  begin
     id 16
     name head
     direction -0.0155588 0.999386 -0.0314063  
     length 1.44689  
     axis 0 0 0   XYZ
    dof rx ry rz
    limits (-20.0 45.0)
           (-30.0 30.0)
           (-30.0 30.0)
  end
  begin
     id 17 
     name lclavicle
     direction 0.968229 0.236071 -0.0824755  
     length 3.60593  
     axis 0 0 0   XYZ
    dof ry rz
    limits (-20.0 10.0)
           (0.0 20.0)
  end
  begin
     id 18 
     name lhumerus
     direction 1 -4.48968e-011 7.8138e-029   
     length 5.06035   
     axis 180 -30 -90   XYZ
    dof rx ry rz
    limits (-60.0 90.0)
           (-90.0 90.0)
           (-90.0 90.0)
  end
  begin
     id 19
     name lradius
     direction 1 -4.48967e-011 9.02887e-028   
     length 3.1478   
     axis 180 -30 -90   XYZ
    dof rx
    limits (-10.0 170.0)
  end
  begin
     id 20
     name lwrist
     direction 1 -4.48961e-011 7.20928e-028   
     length 1.5739   
     axis -5.52449e-016 90 90   XYZ
    dof ry
    limits (-180.0 0.0)
 end
  begin
     id 21 
     name lhand
     direction 1 -4.48972e-011 1.44186e-027   
     length 0.606747   
     axis -9.20027e-016 90 90   XYZ
    dof rx rz
    limits (-90.0 90.0)
           (-45.0 45.0)
  end
  begin
     id 22 
     name lfingers
     direction 1 -4.48943e-011 2.88371e-027   
     length 0.489175   
     axis -1.84005e-015 90 90   XYZ
    dof rx
    limits (0.0 90.0)
  end
  begin
     id 23
     name lthumb
     direction 0.707107 -6.34917e-011 0.707107   
     length 0.70236   
     axis -90 45 2.85299e-015   XYZ
    dof rx rz
    limits (-45.0 45.0)
           (-45.0 45.0)
  end
  begin
     id 24 
     name rclavicle
     direction -0.978165 0.207816 0.0022268   
     length 3.35425  
     axis 0 0 0   XYZ 
    dof ry rz
    limits (-10.0 20.0)
           (-20.0 0.0)
  end
  begin
     id 25 
     name rhumerus
     direction -1 -4.48964e-011 -4.02159e-027  
     length 5.12273   
     axis 180 30 90   XYZ
    dof rx ry rz
    limits (-90.0 60.0)
           (-90.0 90.0)
           (-90.0 90.0)
  end
  begin
     id 26 
     name rradius
     direction -1 -4.48966e-011 1.62746e-027   
     length 3.422   
     axis 180 30 90   XYZ
    dof rx
    limits (-10.0 170.0)
  end
  begin
     id 27 
     name rwrist
     direction -1 -4.4896e-011 7.20928e-028   
     length 1.711   
     axis -5.52449e-016 -90 -90   XYZ
    dof ry
    limits (-180.0 0.0)
  end
  begin
     id 28
     name rhand
     direction -1 -4.48979e-011 1.44186e-027   
     length 0.704599   
     axis -9.20027e-016 -90 -90   XYZ
    dof rx rz
    limits (-90.0 90.0)
           (-45.0 45.0)
  end
  begin
     id 29
     name rfingers
     direction -1 -4.48962e-011 2.88371e-027   
     length 0.568066   
     axis -1.84005e-015 -90 -90   XYZ
    dof rx
    limits (0.0 90.0)
  end
  begin
     id 30
     name rthumb
     direction -0.707107 -6.34949e-011 0.707107   
     length 0.815633   
     axis -90 -45 -2.85299e-015   XYZ
    dof rx rz
    limits (-45.0 45.0)
           (-45.0 45.0)
  end
:hierarchy
  begin
    root lhipjoint rhipjoint lowerback
    lhipjoint lfemur
    lfemur ltibia
    ltibia lfoot
    lfoot ltoes
    rhipjoint rfemur
    rfemur rtibia
    rtibia rfoot
    rfoot rtoes
    lowerback upperback
    upperback thorax
    thorax lowerneck lclavicle rclavicle
    lowerneck upperneck
    upperneck head
    lclavicle lhumerus
    lhumerus lradius
    lradius lwrist
    lwrist lhand lthumb
    lhand lfingers
    rclavicle rhumerus
    rhumerus rradius
    rradius rwrist
    rwrist rhand rthumb
    rhand rfingers
  end

#!OML:ASF E:\id_vita\Project 1\Capture day 1\Session 1\Male1.ASF
:FULLY-SPECIFIED
:DEGREES
359
root 5.36075 15.9476 1.70006 226.258 -80.1298 -222.844
lowerback 1.4676 -5.95196 -8.81268
upperback 1.61583 -8.04957 -1.83304
thorax 1.79908 -4.15436 2.89697
lowerneck -4.56077 -6.10456 -4.70142
upperneck -14.3055 -8.59485 2.60509
head -3.54504 -4.40141 1.79906
rclavicle -8.71174e-014 1.51076e-014
rhumerus -37.5667 -13.2947 -78.2253
rradius 20.709
rwrist 7.83356
rhand -19.6825 35.8469
rfingers 7.12502
rthumb 6.64634 5.97117
lclavicle -8.71174e-014 1.51076e-014
lhumerus -12.6157 3.73001 81.7671
lradius 37.8496
lwrist 5.59103
lhand -13.2461 45.3647
lfingers 7.12502
lthumb 12.856 74.9487
rfemur -34.0712 3.69698 14.8585
rtibia 20.2776
rfoot -11.2389 -11.262
rtoes 3.07901
lfemur 4.1837 2.1606 -32.6547
ltibia 17.2333
lfoot -18.6496 -12.0156
ltoes 50.3654
360
root 5.21454 15.9296 1.68684 225.913 -80.5209 -222.491
lowerback 1.44175 -5.95031 -8.45858
upperback 1.63988 -8.03752 -1.75327
thorax 1.79929 -4.14352 2.78637
lowerneck -4.47712 -6.13603 -4.76942
upperneck -14.1687 -8.61898 2.64502
head -3.50602 -4.40736 1.82161
rclavicle 7.43952e-014 -1.15295e-014
rhumerus -37.5051 -16.7691 -76.2018
rradius 19.1291
rwrist 11.7727
rhand -19.7709 36.652
rfingers 7.12502
rthumb 6.56102 6.77365
lclavicle 7.43952e-014 -1.15295e-014
lhumerus -12.3239 3.33732 81.9139
lradius 38.2235
lwrist 5.47006
lhand -12.8625 44.9799
lfingers 7.12502
lthumb 13.2257 74.5403
rfemur -33.9638 3.54311 15.3978
rtibia 20.0948
rfoot -11.1065 -11.3563
rtoes 2.16208
lfemur 4.78567 2.06887 -32.2958
ltibia 17.1707
lfoot -18.6211 -12.0028
ltoes 50.1687
361
root 5.06894 15.9176 1.66739 223.909 -80.904 -220.532
lowerback 1.49919 -5.93613 -8.07622
upperback 1.69759 -8.01453 -1.58063
thorax 1.79655 -4.12796 2.7625
lowerneck -4.43737 -6.28784 -4.97192
upperneck -14.2866 -8.81677 2.79959
head -3.53224 -4.503 1.9132
rclavicle 4.94477e-014 -2.10712e-014
rhumerus -37.4801 -18.185 -75.2369
rradius 18.3328
rwrist 13.5949
rhand -19.9098 36.8301
rfingers 7.12502
rthumb 6.42691 6.94762
lclavicle 4.94477e-014 -2.10712e-014
lhumerus -12.0254 3.10738 82.0089
lradius 38.5573
lwrist 5.46958
lhand -12.4156 44.4568
lfingers 7.12502
lthumb 13.6565 73.9888
rfemur -33.7581 3.56093 16.2218
rtibia 20.1899
rfoot -10.7628 -11.2094
rtoes 1.57232
lfemur 5.31474 2.11054 -31.7173
ltibia 17.3493
lfoot -18.6658 -11.9442
ltoes 50.1192
362
root 4.9214 15.9041 1.64459 220.607 -81.3809 -217.383
lowerback 1.78973 -5.95339 -7.66849
upperback 1.72914 -8.05505 -1.28385
thorax 1.65791 -4.13936 2.87811
lowerneck -4.61513 -6.2819 -4.93366
upperneck -14.1032 -8.81885 2.55991
head -3.44791 -4.49839 1.81264
rclavicle 2.71838e-014 1.55052e-014
rhumerus -37.3876 -18.1422 -74.9464
rradius 17.9463
rwrist 13.891
rhand -19.8245 36.4077
rfingers 7.12502
rthumb 6.50922 6.52769
lclavicle 2.71838e-014 1.55052e-014
lhumerus -11.8362 3.00969 82.0939
lradius 38.8346
lwrist 5.52687
lhand -12.2245 44.401
lfingers 7.12502
lthumb 13.8407 73.9205
rfemur -33.3992 3.69042 17.2627
rtibia 20.5653
rfoot -10.4399 -10.8024
rtoes 2.08507
lfemur 5.90037 2.15447 -30.9113
ltibia 17.7387
lfoot -18.8187 -11.8897
ltoes 50.1332
363
root 4.77747 15.8801 1.6485 224.772 -81.1585 -221.21
lowerback 1.68612 -6.03772 -8.06853
upperback 1.45246 -8.17581 -1.40001
thorax 1.48064 -4.19039 2.97698
lowerneck -4.39038 -6.29717 -4.82478
upperneck -14.1118 -8.8351 2.62142
head -3.49222 -4.50911 1.8255
rclavicle 5.79457e-014 1.59028e-015
rhumerus -37.715 -18.275 -74.5031
rradius 17.7621
rwrist 14.2613
rhand -19.4365 36.2805
rfingers 7.12502
rthumb 6.8838 6.41243
lclavicle 5.79457e-014 1.59028e-015
lhumerus -11.8512 2.97351 82.1644
lradius 39.0976
lwrist 5.40946
lhand -12.3451 44.804
lfingers 7.12502
lthumb 13.7244 74.3314
rfemur -33.7361 2.16489 17.2467
rtibia 21.2398
rfoot -10.7123 -8.67017
rtoes 4.65161
lfemur 5.85353 2.04658 -31.6631
ltibia 18.2644
lfoot -19.0955 -11.6876
ltoes 49.5047
364
root 4.62654 15.8539 1.63836 225.73 -81.0157 -221.961
lowerback 1.37069 -5.94378 -8.07049
upperback 1.39862 -8.02338 -1.51966
thorax 1.56634 -4.11515 2.8285
lowerneck -3.77893 -6.4462 -5.26725
upperneck -14.7707 -9.05368 3.03213
head -3.79332 -4.60994 2.09321
rclavicle 5.79954e-014 -1.98785e-015
rhumerus -38.0848 -19.1737 -73.8547
rradius 17.5029
rwrist 15.2507
rhand -19.2974 36.4434
rfingers 7.12502
rthumb 7.01803 6.57971
lclavicle 5.79954e-014 -1.98785e-015
lhumerus -11.6822 2.63526 82.2166
lradius 39.2779
lwrist 5.33615
lhand -12.935 44.9473
lfingers 7.12502
lthumb 13.1559 74.5122
rfemur -33.9251 1.59716 17.469
rtibia 22.2015
rfoot -10.4902 -7.26822
rtoes 5.22217
lfemur 5.92346 2.2187 -31.8801
ltibia 18.873
lfoot -19.435 -11.4068
ltoes 48.3078
365
root 4.4706 15.8268 1.61142 223.659 -81.2822 -219.978
lowerback 1.03514 -5.85005 -7.71199
upperback 1.71546 -7.84792 -1.48086
thorax 2.02069 -4.04575 2.62119
lowerneck -4.06467 -6.56662 -5.34797
upperneck -14.801 -9.18024 3.31367
head -3.72846 -4.6846 2.18668
rclavicle 1.77912e-014 -7.95139e-015
rhumerus -37.7884 -20.1901 -73.4414
rradius 17.0324
rwrist 16.1591
rhand -19.3672 36.3131
rfingers 7.12502
rthumb 6.9507 6.44726
lclavicle 1.77912e-014 -7.95139e-015
lhumerus -11.2351 2.35717 82.2519
lradius 39.4721
lwrist 5.30192
lhand -13.4644 44.8986
lfingers 7.12502
lthumb 12.6455 74.4958
rfemur -33.763 1.71436 18.2185
rtibia 23.5121
rfoot -10.2544 -6.71929
rtoes 5.21801
lfemur 6.37593 2.50291 -31.2954
ltibia 19.4585
lfoot -19.559 -11.4224
ltoes 47.6216
366
root 4.31328 15.7983 1.59541 222.347 -81.6732 -218.71
lowerback 1.22718 -5.9212 -7.36898
upperback 1.60926 -7.96023 -1.29993
thorax 1.7933 -4.08685 2.6485
lowerneck -4.16002 -6.6799 -5.41344
upperneck -14.7245 -9.35214 3.10321
head -3.6839 -4.76004 2.12055
rclavicle 4.18442e-014 8.34896e-015
rhumerus -37.7632 -19.071 -73.7135
rradius 17
rwrist 15.2452
rhand -19.458 35.6458
rfingers 7.12502
rthumb 6.86307 5.77704
lclavicle 4.18442e-014 8.34896e-015
lhumerus -11.5868 2.67019 82.3808
lradius 39.8385
lwrist 5.16613
lhand -13.4689 44.9881
lfingers 7.12502
lthumb 12.6412 74.5856
rfemur -33.5898 1.18312 19.1037
rtibia 24.9023
rfoot -10.4299 -5.95097
rtoes 6.29393
lfemur 6.7891 2.60859 -30.776
ltibia 20.1262
lfoot -19.6657 -11.4849
ltoes 47.0967
367
root 4.15356 15.7678 1.58272 224.157 -81.7248 -220.294
lowerback 1.01162 -5.97541 -7.45198
upperback 1.43583 -8.01934 -1.28905
thorax 1.7528 -4.11084 2.68882
lowerneck -4.03972 -6.77489 -5.29019
upperneck -14.6731 -9.50004 2.91949
head -3.69578 -4.82969 2.0441
rclavicle 7.97127e-014 1.47101e-014
rhumerus -37.9399 -16.3367 -74.9737
rradius 17.7454
rwrist 12.4176
rhand -19.4929 34.4089
rfingers 7.12502
rthumb 6.82936 4.53902
lclavicle 7.97127e-014 1.47101e-014
lhumerus -11.8248 2.73024 82.4695
lradius 40.0206
lwrist 5.14171
lhand -13.4476 44.9481
lfingers 7.12502
lthumb 12.6617 74.5443
rfemur -33.7977 0.348588 19.438
rtibia 26.3858
rfoot -11.5653 -5.02486
rtoes 5.82371
lfemur 7.085 2.58525 -30.889
ltibia 20.3358
lfoot -19.3505 -11.503
ltoes 46.9117
368
root 3.98949 15.7373 1.57438 228.642 -81.5225 -224.451
lowerback 0.620752 -6.03353 -7.87039
upperback 1.21663 -8.07219 -1.41585
thorax 1.78879 -4.13709 2.74993
lowerneck -3.98614 -6.98366 -5.31266
upperneck -14.6833 -9.78729 2.89221
head -3.69752 -4.9691 2.04297
rclavicle -3.39425e-014 -2.78299e-015
rhumerus -38.3462 -20.1883 -72.3731
rradius 16.4007
rwrist 16.8848
rhand -19.4008 35.0218
rfingers 7.12502
rthumb 6.91826 5.15486
lclavicle -3.39425e-014 -2.78299e-015
lhumerus -12.0933 2.60807 82.5801
lradius 40.0864
lwrist 5.14879
lhand -13.6413 44.6737
lfingers 7.12502
lthumb 12.475 74.2813
rfemur -34.1136 -0.936374 19.363
rtibia 27.6912
rfoot -11.2202 -3.55128
rtoes 7.4896
lfemur 7.39975 2.41262 -31.4942
ltibia 20.2177
lfoot -18.5649 -11.7303
ltoes 47.3616
369
root 3.80947 15.7774 1.55141 227.475 -82.0428 -223.305
lowerback 0.49775 -6.09704 -7.42139
upperback 1.1619 -8.14369 -1.2517
thorax 1.76938 -4.16423 2.66438
lowerneck -3.90297 -6.9514 -5.46122
upperneck -14.5002 -9.7193 2.9496
head -3.64019 -4.92575 2.08185
rclavicle -9.09937e-014 -1.55052e-014
rhumerus -38.7514 -21.768 -71.0283
rradius 15.895
rwrist 18.8653
rhand -19.2749 35.2226
rfingers 7.12502
rthumb 7.03977 5.35964
lclavicle -9.09937e-014 -1.55052e-014
lhumerus -12.4846 2.72697 82.6769
lradius 40.224
lwrist 5.10523
lhand -13.8008 44.4996
lfingers 7.12502
lthumb 12.3211 74.1165
rfemur -34.1999 -1.31188 20.1961
rtibia 28.7557
rfoot -13.3576 -2.42519
rtoes 12.7478
lfemur 8.23891 2.36661 -30.7806
ltibia 19.8965
lfoot -17.7143 -11.9443
ltoes 47.1999
